<svg xmlns="http://www.w3.org/2000/svg" version="1.1" xmlns:xlink="http://www.w3.org/1999/xlink" xmlns:svgjs="http://svgjs.dev/svgjs" viewBox="0 0 11.702252792803158 11.47868697083474"><g transform="matrix(0.8559520687072838,0,0,0.8559520687072838,1.6695832091865528,8.566981394450396)"><g transform="matrix(1,0,0,1,0,0)" clip-path="url(#SvgjsClipPath81637)"><g clip-path="url(#SvgjsClipPath816356f061ca2-2d7c-42c2-9d3f-caed9b574fd3)"><path d=" M 0.6544999195003367 -1.6602765473719048 L 4.885258460400413 -0.24998335097753 L 4.885258460400413 -5.326950089256378 L 0.6544999195003367 -6.666712486059961 Z" fill="#431a10" transform="matrix(1,0,0,1,0,0)" fill-rule="nonzero"></path></g><g clip-path="url(#SvgjsClipPath816356f061ca2-2d7c-42c2-9d3f-caed9b574fd3)"><path d=" M 4.885269037323209 -5.326959255963149 L 4.885269037323209 -0.24999251768430053 L 9.115987228795602 -1.6602857140786753 L 9.115987228795602 -6.666721652766732 Z" fill="#3e7742" transform="matrix(1,0,0,1,0,0)" fill-rule="nonzero"></path></g><g clip-path="url(#SvgjsClipPath816356f061ca2-2d7c-42c2-9d3f-caed9b574fd3)"><path d=" M 4.885269037323209 -8.076971287406582 L 0.6545104964231316 -6.66671844043989 L 4.885269037323209 -5.3269963930639905 L 9.115987228795602 -6.66671844043989 Z" fill="#b88059" transform="matrix(1,0,0,1,0,0)" fill-rule="nonzero"></path></g><g clip-path="url(#SvgjsClipPath816356f061ca2-2d7c-42c2-9d3f-caed9b574fd3)"><path d=" M 4.885269037323209 -6.6667250021810975 L 2.769869592159328 -5.961578403983911 L 2.769869592159328 -3.2116035096413187 L 4.885269037323209 -3.916709758410822 Z" fill="#3e7742" transform="matrix(1,0,0,1,0,0)" fill-rule="nonzero"></path></g><g clip-path="url(#SvgjsClipPath816356f061ca2-2d7c-42c2-9d3f-caed9b574fd3)"><path d=" M 4.885269037323209 -6.6667250021810975 L 7.000668482487089 -5.961578403983911 L 7.000668482487089 -3.2116035096413187 L 4.885269037323209 -3.916709758410822 Z" fill="#431a10" transform="matrix(1,0,0,1,0,0)" fill-rule="nonzero"></path></g><g clip-path="url(#SvgjsClipPath816356f061ca2-2d7c-42c2-9d3f-caed9b574fd3)"><path d=" M 7.0006233340882265 -3.211574697051714 L 4.88526423835203 -3.9167212952489017 L 2.769905142615833 -3.211574697051714 L 4.88526423835203 -2.5064684482822095 Z" fill="#b88059" transform="matrix(1,0,0,1,0,0)" fill-rule="nonzero"></path></g></g><g><path d=" M 0.831298828125 1.0949707031250002 L 0.831298828125 1.0920410156250002 Q 0.832763671875 1.0883789062500002 0.83349609375 1.0810546875000002 Q 0.834228515625 1.0737304687500002 0.834228515625 1.0678710937500002 Q 0.834228515625 1.0451660156250002 0.8280029296875 1.0177001953125002 Q 0.82177734375 0.9902343750000002 0.80419921875 0.9492187500000002 L 0.715576171875 0.7500000000000002 Q 0.674560546875 0.7485351562500002 0.6064453125 0.7485351562500002 Q 0.538330078125 0.7485351562500002 0.459228515625 0.7485351562500002 Q 0.4013671875 0.7485351562500002 0.3475341796875 0.7485351562500002 Q 0.293701171875 0.7485351562500002 0.25048828125 0.7500000000000002 L 0.166259765625 0.9433593750000002 Q 0.1552734375 0.9704589843750002 0.142822265625 1.0026855468750002 Q 0.13037109375 1.0349121093750002 0.13037109375 1.0678710937500002 Q 0.13037109375 1.0773925781250002 0.1318359375 1.0836181640625002 Q 0.13330078125 1.0898437500000002 0.134765625 1.0920410156250002 L 0.134765625 1.0949707031250002 L -0.0146484375 1.0949707031250002 L -0.0146484375 1.0920410156250002 Q -0.00146484375 1.0781250000000002 0.018310546875 1.0426025390625002 Q 0.0380859375 1.0070800781250002 0.0615234375 0.9536132812500002 L 0.481201171875 0.022705078125000222 L 0.539794921875 0.022705078125000222 L 0.9375 0.9177246093750002 Q 0.951416015625 0.9492187500000002 0.9664306640625 0.9788818359375002 Q 0.9814453125 1.0085449218750002 0.99462890625 1.0319824218750002 Q 1.0078125 1.0554199218750002 1.01806640625 1.0715332031250002 Q 1.0283203125 1.0876464843750002 1.031982421875 1.0920410156250002 L 1.031982421875 1.0949707031250002 L 0.831298828125 1.0949707031250002 M 0.356689453125 0.6855468750000002 Q 0.399169921875 0.6855468750000002 0.44384765625 0.6851806640625002 Q 0.488525390625 0.6848144531250002 0.5313720703125 0.6844482421875002 Q 0.57421875 0.6840820312500002 0.61376953125 0.6837158203125002 Q 0.6533203125 0.6833496093750002 0.685546875 0.6826171875000002 L 0.479736328125 0.21752929687500022 L 0.277587890625 0.6855468750000002 L 0.356689453125 0.6855468750000002 M 1.63330078125 0.6013183593750002 Q 1.63330078125 0.5046386718750002 1.594482421875 0.4592285156250002 Q 1.5556640625 0.4138183593750002 1.490478515625 0.4138183593750002 Q 1.467041015625 0.4138183593750002 1.437744140625 0.4237060546875002 Q 1.408447265625 0.4335937500000002 1.377685546875 0.4500732421875002 Q 1.346923828125 0.4665527343750002 1.316162109375 0.4885253906250002 Q 1.285400390625 0.5104980468750002 1.25830078125 0.5354003906250002 L 1.2568359375 0.6313476562500002 L 1.2568359375 0.8085937500000002 Q 1.2568359375 0.8708496093750002 1.25830078125 0.9173583984375002 Q 1.259765625 0.9638671875000002 1.2626953125 0.9975585937500002 Q 1.265625 1.0312500000000002 1.269287109375 1.0539550781250002 Q 1.27294921875 1.0766601562500002 1.27734375 1.0920410156250002 L 1.27734375 1.0949707031250002 L 1.108154296875 1.0949707031250002 L 1.108154296875 1.0920410156250002 Q 1.112548828125 1.0766601562500002 1.1165771484375 1.0539550781250002 Q 1.12060546875 1.0312500000000002 1.1231689453125 0.9975585937500002 Q 1.125732421875 0.9638671875000002 1.1275634765625 0.9173583984375002 Q 1.12939453125 0.8708496093750002 1.12939453125 0.8085937500000002 L 1.12939453125 0.6313476562500002 Q 1.12939453125 0.5690917968750002 1.1275634765625 0.5225830078125002 Q 1.125732421875 0.4760742187500002 1.1231689453125 0.4423828125000002 Q 1.12060546875 0.4086914062500002 1.1165771484375 0.3859863281250002 Q 1.112548828125 0.3632812500000002 1.108154296875 0.3479003906250002 L 1.108154296875 0.3449707031250002 L 1.27734375 0.3449707031250002 L 1.27734375 0.3479003906250002 Q 1.271484375 0.3662109375000002 1.2681884765625 0.3944091796875002 Q 1.264892578125 0.4226074218750002 1.26123046875 0.4680175781250002 Q 1.291259765625 0.4431152343750002 1.3260498046875 0.4182128906250002 Q 1.36083984375 0.3933105468750002 1.398193359375 0.3739013671875002 Q 1.435546875 0.3544921875000002 1.474365234375 0.3424072265625002 Q 1.51318359375 0.3303222656250002 1.550537109375 0.3303222656250002 Q 1.607666015625 0.3303222656250002 1.6475830078125 0.3500976562500002 Q 1.6875 0.3698730468750002 1.7127685546875 0.4020996093750002 Q 1.738037109375 0.4343261718750002 1.7493896484375 0.4757080078125002 Q 1.7607421875 0.5170898437500002 1.7607421875 0.5595703125000002 L 1.7607421875 0.8085937500000002 Q 1.7607421875 0.8708496093750002 1.76220703125 0.9173583984375002 Q 1.763671875 0.9638671875000002 1.7666015625 0.9975585937500002 Q 1.76953125 1.0312500000000002 1.773193359375 1.0539550781250002 Q 1.77685546875 1.0766601562500002 1.78125 1.0920410156250002 L 1.78125 1.0949707031250002 L 1.612060546875 1.0949707031250002 L 1.612060546875 1.0920410156250002 Q 1.616455078125 1.0766601562500002 1.6204833984375 1.0539550781250002 Q 1.62451171875 1.0312500000000002 1.6270751953125 0.9975585937500002 Q 1.629638671875 0.9638671875000002 1.6314697265625 0.9173583984375002 Q 1.63330078125 0.8708496093750002 1.63330078125 0.8085937500000002 L 1.63330078125 0.6013183593750002 M 2.24560546875 1.0517578125000002 Q 2.267578125 1.0517578125000002 2.2891845703125 1.0437011718750002 Q 2.310791015625 1.0356445312500002 2.3309326171875 1.0217285156250002 Q 2.35107421875 1.0078125000000002 2.3697509765625 0.9898681640625002 Q 2.388427734375 0.9719238281250002 2.404541015625 0.9521484375000002 L 2.411865234375 0.9558105468750002 L 2.3642578125 1.0737304687500002 Q 2.35546875 1.0781250000000002 2.3426513671875 1.0843505859375002 Q 2.329833984375 1.0905761718750002 2.3118896484375 1.0960693359375002 Q 2.2939453125 1.1015625000000002 2.269775390625 1.1055908203125002 Q 2.24560546875 1.1096191406250002 2.212646484375 1.1096191406250002 Q 2.114501953125 1.1096191406250002 2.0599365234375 1.0565185546875002 Q 2.00537109375 1.0034179687500002 2.00537109375 0.8906250000000002 L 2.00537109375 0.4020996093750002 L 1.88232421875 0.4064941406250002 L 1.88232421875 0.3420410156250002 Q 1.905029296875 0.3435058593750002 1.9365234375 0.3442382812500002 Q 1.968017578125 0.3449707031250002 2.00537109375 0.3449707031250002 Q 2.004638671875 0.2929687500000002 2.0028076171875 0.2530517578125002 Q 2.0009765625 0.21313476562500022 1.9984130859375 0.18347167968750022 Q 1.995849609375 0.15380859375000022 1.9921875 0.13330078125000022 Q 1.988525390625 0.11279296875000022 1.98486328125 0.09887695312500022 L 1.98486328125 0.09594726562500022 L 2.154052734375 0.09594726562500022 L 2.154052734375 0.09887695312500022 Q 2.149658203125 0.11279296875000022 2.14599609375 0.13330078125000022 Q 2.142333984375 0.15380859375000022 2.1397705078125 0.18310546875000022 Q 2.13720703125 0.21240234375000022 2.1353759765625 0.2523193359375002 Q 2.133544921875 0.2922363281250002 2.1328125 0.3449707031250002 Q 2.178955078125 0.3442382812500002 2.2232666015625 0.3431396484375002 Q 2.267578125 0.3420410156250002 2.3038330078125 0.3402099609375002 Q 2.340087890625 0.3383789062500002 2.3653564453125 0.3365478515625002 Q 2.390625 0.3347167968750002 2.398681640625 0.3332519531250002 L 2.385498046875 0.4079589843750002 Q 2.34814453125 0.4072265625000002 2.30712890625 0.4057617187500002 Q 2.27197265625 0.4042968750000002 2.2265625 0.4035644531250002 Q 2.18115234375 0.4028320312500002 2.1328125 0.4020996093750002 L 2.1328125 0.9060058593750002 Q 2.1328125 0.9514160156250002 2.1427001953125 0.9796142578125002 Q 2.152587890625 1.0078125000000002 2.1683349609375 1.0239257812500002 Q 2.18408203125 1.0400390625000002 2.2042236328125 1.0458984375000002 Q 2.224365234375 1.0517578125000002 2.24560546875 1.0517578125000002 M 2.493896484375 0.7185058593750002 Q 2.493896484375 0.6357421875000002 2.524658203125 0.5650634765625002 Q 2.555419921875 0.4943847656250002 2.6092529296875 0.4423828125000002 Q 2.6630859375 0.3903808593750002 2.736328125 0.3610839843750002 Q 2.8095703125 0.3317871093750002 2.893798828125 0.3317871093750002 Q 2.9765625 0.3317871093750002 3.0494384765625 0.3592529296875002 Q 3.122314453125 0.3867187500000002 3.176513671875 0.4372558593750002 Q 3.230712890625 0.4877929687500002 3.2618408203125 0.5603027343750002 Q 3.29296875 0.6328125000000002 3.29296875 0.7229003906250002 Q 3.29296875 0.7983398437500002 3.2666015625 0.8679199218750002 Q 3.240234375 0.9375000000000002 3.18896484375 0.9909667968750002 Q 3.1376953125 1.0444335937500002 3.0633544921875 1.0762939453125002 Q 2.989013671875 1.1081542968750002 2.892333984375 1.1081542968750002 Q 2.810302734375 1.1081542968750002 2.73779296875 1.0810546875000002 Q 2.665283203125 1.0539550781250002 2.611083984375 1.0034179687500002 Q 2.556884765625 0.9528808593750002 2.525390625 0.8807373046875002 Q 2.493896484375 0.8085937500000002 2.493896484375 0.7185058593750002 M 2.9091796875 1.0546875000000002 Q 2.961181640625 1.0546875000000002 3.0047607421875 1.0341796875000002 Q 3.04833984375 1.0136718750000002 3.079833984375 0.9748535156250002 Q 3.111328125 0.9360351562500002 3.12890625 0.8803710937500002 Q 3.146484375 0.8247070312500002 3.146484375 0.7543945312500002 Q 3.146484375 0.6752929687500002 3.129638671875 0.6075439453125002 Q 3.11279296875 0.5397949218750002 3.0794677734375 0.4903564453125002 Q 3.046142578125 0.4409179687500002 2.99560546875 0.4130859375000002 Q 2.945068359375 0.3852539062500002 2.877685546875 0.3852539062500002 Q 2.82568359375 0.3852539062500002 2.782470703125 0.4053955078125002 Q 2.7392578125 0.4255371093750002 2.7073974609375 0.4636230468750002 Q 2.675537109375 0.5017089843750002 2.657958984375 0.5570068359375002 Q 2.640380859375 0.6123046875000002 2.640380859375 0.6826171875000002 Q 2.640380859375 0.7617187500000002 2.6575927734375 0.8298339843750002 Q 2.6748046875 0.8979492187500002 2.70849609375 0.9481201171875002 Q 2.7421875 0.9982910156250002 2.7923583984375 1.0264892578125002 Q 2.842529296875 1.0546875000000002 2.9091796875 1.0546875000000002 M 3.960205078125 0.6013183593750002 Q 3.960205078125 0.5046386718750002 3.92138671875 0.4592285156250002 Q 3.882568359375 0.4138183593750002 3.8173828125 0.4138183593750002 Q 3.7939453125 0.4138183593750002 3.7646484375 0.4237060546875002 Q 3.7353515625 0.4335937500000002 3.70458984375 0.4500732421875002 Q 3.673828125 0.4665527343750002 3.64306640625 0.4885253906250002 Q 3.6123046875 0.5104980468750002 3.585205078125 0.5354003906250002 L 3.583740234375 0.6313476562500002 L 3.583740234375 0.8085937500000002 Q 3.583740234375 0.8708496093750002 3.585205078125 0.9173583984375002 Q 3.586669921875 0.9638671875000002 3.589599609375 0.9975585937500002 Q 3.592529296875 1.0312500000000002 3.59619140625 1.0539550781250002 Q 3.599853515625 1.0766601562500002 3.604248046875 1.0920410156250002 L 3.604248046875 1.0949707031250002 L 3.43505859375 1.0949707031250002 L 3.43505859375 1.0920410156250002 Q 3.439453125 1.0766601562500002 3.4434814453125 1.0539550781250002 Q 3.447509765625 1.0312500000000002 3.4500732421875 0.9975585937500002 Q 3.45263671875 0.9638671875000002 3.4544677734375 0.9173583984375002 Q 3.456298828125 0.8708496093750002 3.456298828125 0.8085937500000002 L 3.456298828125 0.6313476562500002 Q 3.456298828125 0.5690917968750002 3.4544677734375 0.5225830078125002 Q 3.45263671875 0.4760742187500002 3.4500732421875 0.4423828125000002 Q 3.447509765625 0.4086914062500002 3.4434814453125 0.3859863281250002 Q 3.439453125 0.3632812500000002 3.43505859375 0.3479003906250002 L 3.43505859375 0.3449707031250002 L 3.604248046875 0.3449707031250002 L 3.604248046875 0.3479003906250002 Q 3.598388671875 0.3662109375000002 3.5950927734375 0.3944091796875002 Q 3.591796875 0.4226074218750002 3.588134765625 0.4680175781250002 Q 3.6181640625 0.4431152343750002 3.6529541015625 0.4182128906250002 Q 3.687744140625 0.3933105468750002 3.72509765625 0.3739013671875002 Q 3.762451171875 0.3544921875000002 3.80126953125 0.3424072265625002 Q 3.840087890625 0.3303222656250002 3.87744140625 0.3303222656250002 Q 3.9345703125 0.3303222656250002 3.9744873046875 0.3500976562500002 Q 4.014404296875 0.3698730468750002 4.0396728515625 0.4020996093750002 Q 4.06494140625 0.4343261718750002 4.0762939453125 0.4757080078125002 Q 4.087646484375 0.5170898437500002 4.087646484375 0.5595703125000002 L 4.087646484375 0.8085937500000002 Q 4.087646484375 0.8708496093750002 4.089111328125 0.9173583984375002 Q 4.090576171875 0.9638671875000002 4.093505859375 0.9975585937500002 Q 4.096435546875 1.0312500000000002 4.10009765625 1.0539550781250002 Q 4.103759765625 1.0766601562500002 4.108154296875 1.0920410156250002 L 4.108154296875 1.0949707031250002 L 3.93896484375 1.0949707031250002 L 3.93896484375 1.0920410156250002 Q 3.943359375 1.0766601562500002 3.9473876953125 1.0539550781250002 Q 3.951416015625 1.0312500000000002 3.9539794921875 0.9975585937500002 Q 3.95654296875 0.9638671875000002 3.9583740234375 0.9173583984375002 Q 3.960205078125 0.8708496093750002 3.960205078125 0.8085937500000002 L 3.960205078125 0.6013183593750002 M 4.54248046875 1.0861816406250002 L 4.28466796875 0.5222167968750002 Q 4.270751953125 0.4899902343750002 4.254638671875 0.4603271484375002 Q 4.238525390625 0.4306640625000002 4.2242431640625 0.4072265625000002 Q 4.2099609375 0.3837890625000002 4.198974609375 0.3680419921875002 Q 4.18798828125 0.3522949218750002 4.184326171875 0.3479003906250002 L 4.184326171875 0.3449707031250002 L 4.376220703125 0.3449707031250002 L 4.376220703125 0.3479003906250002 Q 4.374755859375 0.3515625000000002 4.3740234375 0.3588867187500002 Q 4.373291015625 0.3662109375000002 4.373291015625 0.3720703125000002 Q 4.373291015625 0.3947753906250002 4.3802490234375 0.4222412109375002 Q 4.38720703125 0.4497070312500002 4.40625 0.4907226562500002 L 4.6083984375 0.9301757812500002 L 4.79296875 0.4965820312500002 Q 4.8046875 0.4694824218750002 4.8167724609375 0.4372558593750002 Q 4.828857421875 0.4050292968750002 4.828857421875 0.3720703125000002 Q 4.828857421875 0.3625488281250002 4.827392578125 0.3563232421875002 Q 4.825927734375 0.3500976562500002 4.824462890625 0.3479003906250002 L 4.824462890625 0.3449707031250002 L 4.956298828125 0.3449707031250002 L 4.956298828125 0.3479003906250002 Q 4.943115234375 0.3618164062500002 4.9229736328125 0.3973388671875002 Q 4.90283203125 0.4328613281250002 4.880126953125 0.4863281250000002 L 4.53076171875 1.3183593750000002 Q 4.51904296875 1.3454589843750002 4.5069580078125 1.3776855468750002 Q 4.494873046875 1.4099121093750002 4.494873046875 1.4428710937500002 Q 4.494873046875 1.4523925781250002 4.496337890625 1.4586181640625002 Q 4.497802734375 1.4648437500000002 4.499267578125 1.4670410156250002 L 4.499267578125 1.4699707031250002 L 4.3623046875 1.4699707031250002 L 4.3623046875 1.4670410156250002 Q 4.376220703125 1.4531250000000002 4.3963623046875 1.4183349609375002 Q 4.41650390625 1.3835449218750002 4.439208984375 1.3308105468750002 L 4.54248046875 1.0861816406250002 M 5.653564453125 1.0305175781250002 Q 5.739990234375 1.0305175781250002 5.8125 1.0231933593750002 Q 5.885009765625 1.0158691406250002 5.939208984375 1.0063476562500002 Q 6.002197265625 0.9960937500000002 6.05419921875 0.9821777343750002 L 6.032958984375 1.1008300781250002 Q 6.024169921875 1.1000976562500002 6.006591796875 1.0993652343750002 Q 5.989013671875 1.0986328125000002 5.9674072265625 1.0979003906250002 Q 5.94580078125 1.0971679687500002 5.9219970703125 1.0968017578125002 Q 5.898193359375 1.0964355468750002 5.876953125 1.0960693359375002 Q 5.855712890625 1.0957031250000002 5.8392333984375 1.0953369140625002 Q 5.82275390625 1.0949707031250002 5.8154296875 1.0949707031250002 L 5.4990234375 1.0949707031250002 L 5.4990234375 1.0920410156250002 Q 5.50341796875 1.0766601562500002 5.5074462890625 1.0539550781250002 Q 5.511474609375 1.0312500000000002 5.514404296875 0.9975585937500002 Q 5.517333984375 0.9638671875000002 5.518798828125 0.9173583984375002 Q 5.520263671875 0.8708496093750002 5.520263671875 0.8085937500000002 L 5.520263671875 0.3317871093750002 Q 5.520263671875 0.2695312500000002 5.518798828125 0.22302246093750022 Q 5.517333984375 0.17651367187500022 5.514404296875 0.14245605468750022 Q 5.511474609375 0.10839843750000022 5.5074462890625 0.08569335937500022 Q 5.50341796875 0.06298828125000022 5.4990234375 0.04760742187500022 L 5.4990234375 0.04467773437500022 L 5.6748046875 0.04467773437500022 L 5.6748046875 0.04760742187500022 Q 5.67041015625 0.06298828125000022 5.6663818359375 0.08569335937500022 Q 5.662353515625 0.10839843750000022 5.6597900390625 0.14245605468750022 Q 5.6572265625 0.17651367187500022 5.6553955078125 0.22302246093750022 Q 5.653564453125 0.2695312500000002 5.653564453125 0.3317871093750002 L 5.653564453125 1.0305175781250002 M 6.3193359375 0.8386230468750002 Q 6.3193359375 0.9353027343750002 6.3577880859375 0.9807128906250002 Q 6.396240234375 1.0261230468750002 6.46142578125 1.0261230468750002 Q 6.48486328125 1.0261230468750002 6.51416015625 1.0162353515625002 Q 6.54345703125 1.0063476562500002 6.5745849609375 0.9898681640625002 Q 6.605712890625 0.9733886718750002 6.6368408203125 0.9514160156250002 Q 6.66796875 0.9294433593750002 6.6943359375 0.9045410156250002 Q 6.69580078125 0.8833007812500002 6.69580078125 0.8594970703125002 Q 6.69580078125 0.8356933593750002 6.69580078125 0.8085937500000002 L 6.69580078125 0.6313476562500002 Q 6.69580078125 0.5690917968750002 6.6939697265625 0.5225830078125002 Q 6.692138671875 0.4760742187500002 6.6895751953125 0.4423828125000002 Q 6.68701171875 0.4086914062500002 6.6829833984375 0.3859863281250002 Q 6.678955078125 0.3632812500000002 6.674560546875 0.3479003906250002 L 6.674560546875 0.3449707031250002 L 6.84375 0.3449707031250002 L 6.84375 0.3479003906250002 Q 6.83935546875 0.3632812500000002 6.835693359375 0.3859863281250002 Q 6.83203125 0.4086914062500002 6.8291015625 0.4423828125000002 Q 6.826171875 0.4760742187500002 6.82470703125 0.5225830078125002 Q 6.8232421875 0.5690917968750002 6.8232421875 0.6313476562500002 L 6.8232421875 0.8085937500000002 Q 6.8232421875 0.8708496093750002 6.82470703125 0.9173583984375002 Q 6.826171875 0.9638671875000002 6.8291015625 0.9975585937500002 Q 6.83203125 1.0312500000000002 6.835693359375 1.0539550781250002 Q 6.83935546875 1.0766601562500002 6.84375 1.0920410156250002 L 6.84375 1.0949707031250002 L 6.674560546875 1.0949707031250002 L 6.674560546875 1.0920410156250002 Q 6.678955078125 1.0737304687500002 6.6837158203125 1.0451660156250002 Q 6.6884765625 1.0166015625000002 6.690673828125 0.9704589843750002 Q 6.66064453125 0.9960937500000002 6.6258544921875 1.0209960937500002 Q 6.591064453125 1.0458984375000002 6.5533447265625 1.0656738281250002 Q 6.515625 1.0854492187500002 6.4771728515625 1.0975341796875002 Q 6.438720703125 1.1096191406250002 6.4013671875 1.1096191406250002 Q 6.34423828125 1.1096191406250002 6.3043212890625 1.0898437500000002 Q 6.264404296875 1.0700683593750002 6.2391357421875 1.0378417968750002 Q 6.2138671875 1.0056152343750002 6.2025146484375 0.9645996093750002 Q 6.191162109375 0.9235839843750002 6.191162109375 0.8803710937500002 L 6.191162109375 0.6313476562500002 Q 6.191162109375 0.5690917968750002 6.189697265625 0.5225830078125002 Q 6.188232421875 0.4760742187500002 6.185302734375 0.4423828125000002 Q 6.182373046875 0.4086914062500002 6.1787109375 0.3859863281250002 Q 6.175048828125 0.3632812500000002 6.170654296875 0.3479003906250002 L 6.170654296875 0.3449707031250002 L 6.33984375 0.3449707031250002 L 6.33984375 0.3479003906250002 Q 6.33544921875 0.3632812500000002 6.331787109375 0.3859863281250002 Q 6.328125 0.4086914062500002 6.3251953125 0.4423828125000002 Q 6.322265625 0.4760742187500002 6.32080078125 0.5225830078125002 Q 6.3193359375 0.5690917968750002 6.3193359375 0.6313476562500002 L 6.3193359375 0.8386230468750002 M 7.656005859375 0.9389648437500002 L 7.601806640625 1.0693359375000002 Q 7.58203125 1.0781250000000002 7.556396484375 1.0854492187500002 Q 7.53076171875 1.0927734375000002 7.5032958984375 1.0979003906250002 Q 7.475830078125 1.1030273437500002 7.447998046875 1.1055908203125002 Q 7.420166015625 1.1081542968750002 7.395263671875 1.1081542968750002 Q 7.306640625 1.1081542968750002 7.2315673828125 1.0821533203125002 Q 7.156494140625 1.0561523437500002 7.1019287109375 1.0063476562500002 Q 7.04736328125 0.9565429687500002 7.0166015625 0.8840332031250002 Q 6.98583984375 0.8115234375000002 6.98583984375 0.7185058593750002 Q 6.98583984375 0.6357421875000002 7.0177001953125 0.5650634765625002 Q 7.049560546875 0.4943847656250002 7.1063232421875 0.4423828125000002 Q 7.1630859375 0.3903808593750002 7.239990234375 0.3610839843750002 Q 7.31689453125 0.3317871093750002 7.406982421875 0.3317871093750002 Q 7.447998046875 0.3317871093750002 7.494873046875 0.3387451171875002 Q 7.541748046875 0.3457031250000002 7.578369140625 0.3566894531250002 L 7.63037109375 0.4812011718750002 L 7.62158203125 0.4863281250000002 Q 7.603271484375 0.4636230468750002 7.5780029296875 0.4449462890625002 Q 7.552734375 0.4262695312500002 7.5223388671875 0.4130859375000002 Q 7.491943359375 0.3999023437500002 7.458251953125 0.3925781250000002 Q 7.424560546875 0.3852539062500002 7.389404296875 0.3852539062500002 Q 7.332275390625 0.3852539062500002 7.285400390625 0.4053955078125002 Q 7.238525390625 0.4255371093750002 7.204833984375 0.4636230468750002 Q 7.171142578125 0.5017089843750002 7.1524658203125 0.5570068359375002 Q 7.1337890625 0.6123046875000002 7.1337890625 0.6826171875000002 Q 7.1337890625 0.7617187500000002 7.1517333984375 0.8298339843750002 Q 7.169677734375 0.8979492187500002 7.2052001953125 0.9481201171875002 Q 7.24072265625 0.9982910156250002 7.2945556640625 1.0264892578125002 Q 7.348388671875 1.0546875000000002 7.4208984375 1.0546875000000002 Q 7.45458984375 1.0546875000000002 7.4879150390625 1.0462646484375002 Q 7.521240234375 1.0378417968750002 7.5509033203125 1.0220947265625002 Q 7.58056640625 1.0063476562500002 7.60546875 0.9843750000000002 Q 7.63037109375 0.9624023437500002 7.647216796875 0.9345703125000002 L 7.656005859375 0.9389648437500002 M 7.808349609375 0.6313476562500002 Q 7.808349609375 0.5690917968750002 7.8065185546875 0.5225830078125002 Q 7.8046875 0.4760742187500002 7.8021240234375 0.4423828125000002 Q 7.799560546875 0.4086914062500002 7.7955322265625 0.3859863281250002 Q 7.79150390625 0.3632812500000002 7.787109375 0.3479003906250002 L 7.787109375 0.3449707031250002 L 7.956298828125 0.3449707031250002 L 7.956298828125 0.3479003906250002 Q 7.951904296875 0.3632812500000002 7.9482421875 0.3859863281250002 Q 7.944580078125 0.4086914062500002 7.941650390625 0.4423828125000002 Q 7.938720703125 0.4760742187500002 7.937255859375 0.5225830078125002 Q 7.935791015625 0.5690917968750002 7.935791015625 0.6313476562500002 L 7.935791015625 0.8085937500000002 Q 7.935791015625 0.8708496093750002 7.937255859375 0.9173583984375002 Q 7.938720703125 0.9638671875000002 7.941650390625 0.9975585937500002 Q 7.944580078125 1.0312500000000002 7.9482421875 1.0539550781250002 Q 7.951904296875 1.0766601562500002 7.956298828125 1.0920410156250002 L 7.956298828125 1.0949707031250002 L 7.787109375 1.0949707031250002 L 7.787109375 1.0920410156250002 Q 7.79150390625 1.0766601562500002 7.7955322265625 1.0539550781250002 Q 7.799560546875 1.0312500000000002 7.8021240234375 0.9975585937500002 Q 7.8046875 0.9638671875000002 7.8065185546875 0.9173583984375002 Q 7.808349609375 0.8708496093750002 7.808349609375 0.8085937500000002 L 7.808349609375 0.6313476562500002 M 7.79296875 0.12304687500000022 Q 7.79296875 0.10693359375000022 7.7991943359375 0.09265136718750022 Q 7.805419921875 0.07836914062500022 7.815673828125 0.06774902343750022 Q 7.825927734375 0.05712890625000022 7.8402099609375 0.05090332031250022 Q 7.8544921875 0.04467773437500022 7.871337890625 0.04467773437500022 Q 7.88818359375 0.04467773437500022 7.9024658203125 0.05090332031250022 Q 7.916748046875 0.05712890625000022 7.9273681640625 0.06774902343750022 Q 7.93798828125 0.07836914062500022 7.9442138671875 0.09265136718750022 Q 7.950439453125 0.10693359375000022 7.950439453125 0.12304687500000022 Q 7.950439453125 0.15673828125000022 7.927734375 0.17944335937500022 Q 7.905029296875 0.20214843750000022 7.871337890625 0.20214843750000022 Q 7.8544921875 0.20214843750000022 7.8402099609375 0.19592285156250022 Q 7.825927734375 0.18969726562500022 7.815673828125 0.17907714843750022 Q 7.805419921875 0.16845703125000022 7.7991943359375 0.15417480468750022 Q 7.79296875 0.13989257812500022 7.79296875 0.12304687500000022 M 8.4990234375 0.3317871093750002 Q 8.529052734375 0.3317871093750002 8.55908203125 0.3369140625000002 Q 8.589111328125 0.3420410156250002 8.61767578125 0.3515625000000002 Q 8.646240234375 0.3610839843750002 8.671875 0.3750000000000002 Q 8.697509765625 0.3889160156250002 8.718017578125 0.4064941406250002 L 8.718017578125 0.2863769531250002 Q 8.718017578125 0.22412109375000022 8.716552734375 0.17761230468750022 Q 8.715087890625 0.13110351562500022 8.712158203125 0.09741210937500022 Q 8.709228515625 0.06372070312500022 8.70556640625 0.04101562500000022 Q 8.701904296875 0.018310546875000222 8.697509765625 0.002929687500000222 L 8.697509765625 2.220446049250313e-16 L 8.86669921875 2.220446049250313e-16 L 8.86669921875 0.002929687500000222 Q 8.8623046875 0.018310546875000222 8.8582763671875 0.04101562500000022 Q 8.854248046875 0.06372070312500022 8.8516845703125 0.09741210937500022 Q 8.84912109375 0.13110351562500022 8.8472900390625 0.17761230468750022 Q 8.845458984375 0.22412109375000022 8.845458984375 0.2863769531250002 L 8.845458984375 0.8085937500000002 Q 8.845458984375 0.8708496093750002 8.8472900390625 0.9173583984375002 Q 8.84912109375 0.9638671875000002 8.8516845703125 0.9975585937500002 Q 8.854248046875 1.0312500000000002 8.8582763671875 1.0539550781250002 Q 8.8623046875 1.0766601562500002 8.86669921875 1.0920410156250002 L 8.86669921875 1.0949707031250002 L 8.704833984375 1.0949707031250002 L 8.704833984375 1.0920410156250002 Q 8.70703125 1.0861816406250002 8.70849609375 1.0748291015625002 Q 8.7099609375 1.0634765625000002 8.712158203125 1.0466308593750002 Q 8.6748046875 1.0700683593750002 8.618408203125 1.0891113281250002 Q 8.56201171875 1.1081542968750002 8.4873046875 1.1081542968750002 Q 8.400146484375 1.1081542968750002 8.3291015625 1.0810546875000002 Q 8.258056640625 1.0539550781250002 8.2078857421875 1.0034179687500002 Q 8.15771484375 0.9528808593750002 8.130615234375 0.8807373046875002 Q 8.103515625 0.8085937500000002 8.103515625 0.7185058593750002 Q 8.103515625 0.6357421875000002 8.1328125 0.5650634765625002 Q 8.162109375 0.4943847656250002 8.21484375 0.4423828125000002 Q 8.267578125 0.3903808593750002 8.340087890625 0.3610839843750002 Q 8.41259765625 0.3317871093750002 8.4990234375 0.3317871093750002 M 8.718017578125 0.5354003906250002 Q 8.688720703125 0.4584960937500002 8.6341552734375 0.4218750000000002 Q 8.57958984375 0.3852539062500002 8.511474609375 0.3852539062500002 Q 8.454345703125 0.3852539062500002 8.406005859375 0.4053955078125002 Q 8.357666015625 0.4255371093750002 8.3232421875 0.4636230468750002 Q 8.288818359375 0.5017089843750002 8.2694091796875 0.5570068359375002 Q 8.25 0.6123046875000002 8.25 0.6826171875000002 Q 8.25 0.7617187500000002 8.267578125 0.8298339843750002 Q 8.28515625 0.8979492187500002 8.3192138671875 0.9481201171875002 Q 8.353271484375 0.9982910156250002 8.40380859375 1.0264892578125002 Q 8.454345703125 1.0546875000000002 8.520263671875 1.0546875000000002 Q 8.5546875 1.0546875000000002 8.584716796875 1.0466308593750002 Q 8.61474609375 1.0385742187500002 8.6396484375 1.0261230468750002 Q 8.66455078125 1.0136718750000002 8.68359375 0.9986572265625002 Q 8.70263671875 0.9836425781250002 8.715087890625 0.9689941406250002 Q 8.716552734375 0.9375000000000002 8.71728515625 0.8972167968750002 Q 8.718017578125 0.8569335937500002 8.718017578125 0.8085937500000002 L 8.718017578125 0.5354003906250002 M 9.3984375 1.1081542968750002 Q 9.317138671875 1.1081542968750002 9.24609375 1.0825195312500002 Q 9.175048828125 1.0568847656250002 9.122314453125 1.0074462890625002 Q 9.069580078125 0.9580078125000002 9.0391845703125 0.8851318359375002 Q 9.0087890625 0.8122558593750002 9.0087890625 0.7185058593750002 Q 9.0087890625 0.6357421875000002 9.03662109375 0.5650634765625002 Q 9.064453125 0.4943847656250002 9.113525390625 0.4423828125000002 Q 9.16259765625 0.3903808593750002 9.2281494140625 0.3610839843750002 Q 9.293701171875 0.3317871093750002 9.369873046875 0.3317871093750002 Q 9.4453125 0.3317871093750002 9.509765625 0.3577880859375002 Q 9.57421875 0.3837890625000002 9.6214599609375 0.4332275390625002 Q 9.668701171875 0.4826660156250002 9.6961669921875 0.5555419921875002 Q 9.7236328125 0.6284179687500002 9.725830078125 0.7214355468750002 Q 9.64306640625 0.7199707031250002 9.560302734375 0.7192382812500002 Q 9.4775390625 0.7185058593750002 9.38818359375 0.7185058593750002 Q 9.324462890625 0.7185058593750002 9.2640380859375 0.7192382812500002 Q 9.20361328125 0.7199707031250002 9.1552734375 0.7214355468750002 Q 9.15966796875 0.7976074218750002 9.1790771484375 0.8591308593750002 Q 9.198486328125 0.9206542968750002 9.2325439453125 0.9642333984375002 Q 9.2666015625 1.0078125000000002 9.3153076171875 1.0312500000000002 Q 9.364013671875 1.0546875000000002 9.425537109375 1.0546875000000002 Q 9.468017578125 1.0546875000000002 9.5057373046875 1.0447998046875002 Q 9.54345703125 1.0349121093750002 9.57421875 1.0173339843750002 Q 9.60498046875 0.9997558593750002 9.629150390625 0.9759521484375002 Q 9.6533203125 0.9521484375000002 9.670166015625 0.9243164062500002 L 9.678955078125 0.9287109375000002 L 9.624755859375 1.0590820312500002 Q 9.585205078125 1.0795898437500002 9.5302734375 1.0938720703125002 Q 9.475341796875 1.1081542968750002 9.3984375 1.1081542968750002 M 9.301025390625 0.6613769531250002 Q 9.374267578125 0.6613769531250002 9.4478759765625 0.6610107421875002 Q 9.521484375 0.6606445312500002 9.58154296875 0.6584472656250002 Q 9.574951171875 0.5947265625000002 9.556640625 0.5441894531250002 Q 9.538330078125 0.4936523437500002 9.509765625 0.4584960937500002 Q 9.481201171875 0.4233398437500002 9.4423828125 0.4042968750000002 Q 9.403564453125 0.3852539062500002 9.356689453125 0.3852539062500002 Q 9.314208984375 0.3852539062500002 9.2786865234375 0.4039306640625002 Q 9.2431640625 0.4226074218750002 9.216796875 0.4577636718750002 Q 9.1904296875 0.4929199218750002 9.17431640625 0.5438232421875002 Q 9.158203125 0.5947265625000002 9.1552734375 0.6599121093750002 Q 9.188232421875 0.6613769531250002 9.224853515625 0.6613769531250002 Q 9.261474609375 0.6613769531250002 9.301025390625 0.6613769531250002" fill="#431a10" fill-rule="nonzero"></path></g><g></g></g><defs><clipPath id="SvgjsClipPath81637"><path d=" M 0.6544999195003367 -8.076971287406582 h 8.461507973499327 v 7.8269712874065815 h -8.461507973499327 Z"></path></clipPath><clipPath id="SvgjsClipPath816356f061ca2-2d7c-42c2-9d3f-caed9b574fd3"><path d=" M 0.6544999195003367 -8.076971287406582 L 9.116007892999663 -8.076971287406582 L 9.116007892999663 -0.2500000000000009 L 0.6544999195003367 -0.2500000000000009 Z"></path></clipPath></defs></svg>